<svg width="147" height="31" viewBox="0 0 147 31" fill="none" xmlns="http://www.w3.org/2000/svg">
<path d="M15.4846 24V13.792H3.77263V24H0.220625V0.959999H3.77263V10.528H15.4846V0.959999H19.0366V24H15.4846ZM22.0374 30.4V27.584H24.5974C26.1654 27.584 26.5494 27.072 27.0614 25.6L27.6374 24.064L21.3334 7.36H24.9494L29.3974 20.384L33.8454 7.36H37.4614L30.3574 26.304C29.4934 28.672 28.5014 30.4 25.7174 30.4H22.0374ZM39.5279 7.36H42.7599V9.728C43.9119 8.032 45.7359 6.976 48.1999 6.976C53.0959 6.976 55.7839 10.688 55.7839 15.68C55.7839 20.672 53.0959 24.384 48.1999 24.384C45.7999 24.384 44.0399 23.424 42.8879 21.792V30.4H39.5279V7.36ZM42.7919 15.68C42.7919 19.104 44.3279 21.504 47.5599 21.504C50.7919 21.504 52.3279 19.104 52.3279 15.68C52.3279 12.256 50.7919 9.856 47.5599 9.856C44.3279 9.856 42.7919 12.256 42.7919 15.68ZM69.8506 13.632C69.8506 11.488 68.7946 9.952 66.3626 9.952C65.0826 9.952 62.1066 10.688 62.1066 14.784V24H58.7466V7.36H61.9786V9.696C63.0986 8.128 64.8266 6.976 67.2586 6.976C71.2906 6.976 73.1786 9.856 73.1786 13.28V24H69.8506V13.632ZM92.7101 15.392C92.7101 17.2907 92.3795 18.912 91.7181 20.256C91.0781 21.5787 90.1608 22.592 88.9661 23.296C87.7715 23.9787 86.3528 24.32 84.7101 24.32C83.9208 24.32 83.1848 24.224 82.5021 24.032C81.8195 23.8613 81.1795 23.6053 80.5821 23.264L79.3021 25.056L77.4461 23.808L78.8861 21.824C78.2248 21.056 77.7128 20.1387 77.3501 19.072C77.0088 17.984 76.8381 16.7573 76.8381 15.392C76.8381 12.5547 77.5528 10.368 78.9821 8.832C80.4115 7.296 82.3528 6.528 84.8061 6.528C85.5955 6.528 86.3421 6.63467 87.0461 6.848C87.7501 7.04 88.4008 7.31733 88.9981 7.68L90.2461 5.888L92.1341 7.104L90.6941 9.12C91.3128 9.86667 91.8035 10.7733 92.1661 11.84C92.5288 12.8853 92.7101 14.0693 92.7101 15.392ZM79.7501 15.392C79.7501 16.2027 79.8035 16.96 79.9101 17.664C80.0381 18.3467 80.2408 18.9547 80.5181 19.488L87.5581 9.696C87.1955 9.44 86.7688 9.248 86.2781 9.12C85.8088 8.97067 85.2968 8.896 84.7421 8.896C82.9928 8.896 81.7235 9.472 80.9341 10.624C80.1448 11.776 79.7501 13.3653 79.7501 15.392ZM89.7981 15.392C89.7981 14.6027 89.7341 13.8773 89.6061 13.216C89.4781 12.5547 89.2968 11.968 89.0621 11.456L82.0221 21.248C82.3848 21.4827 82.8008 21.664 83.2701 21.792C83.7395 21.92 84.2408 21.984 84.7741 21.984C85.9261 21.984 86.8755 21.7173 87.6221 21.184C88.3688 20.6507 88.9128 19.8933 89.2541 18.912C89.6168 17.9093 89.7981 16.736 89.7981 15.392ZM97.9731 2.24H101.333V7.36H105.685V10.112H101.333V19.616C101.333 20.768 101.813 21.248 102.997 21.248H105.685V24H102.229C99.4131 24 97.9731 22.944 97.9731 20V10.112H94.9971V7.36H97.9731V2.24ZM108.339 24V7.36H111.699V24H108.339ZM108.339 4.48V0.959999H111.699V4.48H108.339ZM122.7 24.384C117.804 24.384 114.732 20.672 114.732 15.68C114.732 10.688 117.804 6.976 122.7 6.976C127.02 6.976 129.612 9.472 130.124 13.152H126.7C126.284 11.104 124.844 9.856 122.7 9.856C119.724 9.856 118.188 12.256 118.188 15.68C118.188 19.104 119.724 21.504 122.7 21.504C124.876 21.504 126.316 20.192 126.7 18.08H130.124C129.612 21.824 126.828 24.384 122.7 24.384ZM143.272 24V22.048C141.832 23.808 140.008 24.384 137.992 24.384C134.312 24.384 131.944 22.624 131.944 19.424C131.944 16.48 134.12 14.976 138.12 14.24L143.144 13.312V12.224C143.144 10.464 142.056 9.728 139.816 9.728C137.896 9.728 136.04 10.4 135.944 12.576H132.616C132.712 8.576 136.04 6.976 139.816 6.976C144.296 6.976 146.44 8.864 146.44 11.872V24H143.272ZM135.4 19.328C135.4 20.736 136.36 21.696 138.504 21.696C140.776 21.696 143.144 20.448 143.144 17.472V15.808L138.696 16.736C136.68 17.152 135.4 17.632 135.4 19.328Z" fill="#FAFAFA"/>
</svg>
